<!DOCTYPE svg PUBLIC "-//W3C//DTD SVG 1.1//EN" "http://www.w3.org/Graphics/SVG/1.1/DTD/svg11.dtd">
<!-- Uploaded to: SVG Repo, www.svgrepo.com, Transformed by: SVG Repo Mixer Tools -->
<svg fill="#000000" height="800px" width="800px" version="1.1" id="Layer_1" xmlns="http://www.w3.org/2000/svg" xmlns:xlink="http://www.w3.org/1999/xlink" viewBox="0 0 512.001 512.001" xml:space="preserve">
<g id="SVGRepo_bgCarrier" stroke-width="0"/>
<g id="SVGRepo_tracerCarrier" stroke-linecap="round" stroke-linejoin="round"/>
<g id="SVGRepo_iconCarrier"> <g> <g> <path d="M437.021,74.981C388.669,26.629,324.383,0,256.001,0S123.335,26.629,74.983,74.981 C26.629,123.333,0.001,187.62,0.001,256.001s26.629,132.668,74.982,181.02c48.352,48.352,112.638,74.981,181.02,74.981 c38.878,0,76.222-8.495,110.992-25.249c4.422-2.131,6.281-7.445,4.15-11.867c-2.132-4.422-7.445-6.278-11.868-4.148 c-32.343,15.585-67.089,23.487-103.274,23.487C124.646,494.221,17.779,387.356,17.779,256.001S124.646,17.779,256.001,17.779 s238.221,106.866,238.221,238.221c0,79.262-39.266,153.108-105.035,197.542c-4.069,2.749-5.138,8.274-2.391,12.343 c2.747,4.067,8.275,5.137,12.342,2.389c70.671-47.744,112.862-127.098,112.862-212.275 C512.001,187.62,485.373,123.333,437.021,74.981z"/> </g> </g> <g> <g> <path d="M350.15,384.671c-2.677-4.119-8.184-5.281-12.298-2.604c-24.353,15.847-52.657,24.223-81.85,24.223 c-75.596,0-139.699-56.469-149.108-131.351c-0.613-4.871-5.079-8.324-9.928-7.711c-4.871,0.612-8.324,5.057-7.712,9.928 c10.524,83.754,82.21,146.913,166.748,146.913c32.645,0,64.301-9.371,91.547-27.099 C351.663,394.291,352.828,388.785,350.15,384.671z"/> </g> </g> <g> <g> <path d="M460.558,219.228c-2.329-43.84-25.209-82.941-62.772-107.275c-19.19-12.431-38.451-21.75-58.88-28.489 c-51.334-16.931-102.97-18.003-149.324-3.101c-4.673,1.503-7.245,6.509-5.743,11.184c1.502,4.675,6.512,7.244,11.183,5.742 c42.753-13.744,90.582-12.686,138.314,3.059c19.231,6.343,36.638,14.772,54.783,26.526c33.212,21.515,52.632,54.648,54.686,93.296 c2.149,40.457-15.384,79.859-46.906,105.401c-1.153,0.935-2.324,1.843-3.482,2.701c-21.52,15.953-53.066,22.649-82.326,17.461 c-20.372-3.609-49.113-14.678-70.332-46.914c-37.887-57.558-78.868-59.729-100.885-60.897c-1.019-0.055-2.008-0.107-2.964-0.162 l-1.713-0.098c-12.834-0.727-34.316-1.944-42.746-14.268c-5.321-7.78-5.344-19.944-0.072-36.155 c8.805-27.066,34.693-55.475,67.565-74.141c4.27-2.424,5.765-7.85,3.341-12.119c-2.425-4.269-7.851-5.766-12.12-3.341 c-37.123,21.08-65.419,52.519-75.692,84.101c-7.069,21.729-6.294,39.12,2.303,51.691c13.366,19.543,41.371,21.129,56.416,21.982 l1.678,0.096c0.987,0.058,2.009,0.111,3.063,0.168c21.515,1.14,54.028,2.865,86.977,52.918 c24.699,37.521,58.269,50.426,82.08,54.644c7.494,1.329,15.13,1.976,22.75,1.976c26.861,0,53.546-8.041,73.263-22.658 c1.362-1.01,2.738-2.078,4.09-3.173C443.021,310.272,463.01,265.353,460.558,219.228z"/> </g> </g> <g> <g> <path d="M346.38,187.7c-26.119,0-47.368,21.25-47.368,47.368c0,26.119,21.249,47.368,47.368,47.368s47.368-21.249,47.368-47.368 S372.499,187.7,346.38,187.7z M346.38,264.658c-16.316,0-29.59-13.274-29.59-29.59s13.274-29.59,29.59-29.59 s29.59,13.275,29.59,29.59C375.969,251.384,362.696,264.658,346.38,264.658z"/> </g> </g> <g> <g> <path d="M211.724,117.862c-4.247-2.463-9.687-1.017-12.149,3.23l-42.919,73.998c-2.464,4.247-1.017,9.686,3.23,12.149 c1.405,0.814,2.938,1.202,4.452,1.202c3.066,0,6.049-1.588,7.697-4.432l42.919-73.998 C217.418,125.765,215.971,120.325,211.724,117.862z"/> </g> </g> <g> <g> <path d="M274.241,119.342c-4.246-2.463-9.686-1.017-12.149,3.23l-56.629,97.636c-2.463,4.247-1.017,9.686,3.23,12.149 c1.405,0.814,2.938,1.202,4.452,1.202c3.066,0,6.049-1.588,7.697-4.432l56.629-97.636 C279.934,127.245,278.488,121.805,274.241,119.342z"/> </g> </g> <g> <g> <path d="M336.78,133.276c-4.234-2.477-9.682-1.051-12.161,3.187l-74.388,127.236c-2.478,4.238-1.051,9.682,3.187,12.161 c1.409,0.825,2.954,1.216,4.478,1.216c3.054,0,6.029-1.576,7.682-4.404l74.388-127.235 C342.446,141.198,341.019,135.753,336.78,133.276z"/> </g> </g> <g> <g> <path d="M326.188,283.587c-4.236-2.476-9.681-1.05-12.159,3.188l-7.313,12.509c-2.478,4.238-1.051,9.682,3.187,12.161 c1.41,0.825,2.954,1.216,4.478,1.216c3.054,0,6.029-1.576,7.682-4.404l7.313-12.509 C331.853,291.509,330.426,286.065,326.188,283.587z"/> </g> </g> <g> <g> <path d="M396.589,162.849c-4.238-2.477-9.682-1.052-12.162,3.187l-9.168,15.68c-2.478,4.238-1.051,9.682,3.186,12.161 c1.412,0.824,2.956,1.216,4.48,1.216c3.054,0,6.028-1.576,7.682-4.403l9.168-15.68 C402.253,170.771,400.826,165.327,396.589,162.849z"/> </g> </g> </g>
</svg>